<svg height="481pt" viewBox="-14 0 481 481.92008" width="481pt" xmlns="http://www.w3.org/2000/svg"><path d="m453.960938 275.199219v184.960937c0 12.019532-9.742188 21.761719-21.761719 21.761719h-115.320313c-12.015625 0-21.761718-9.742187-21.757812-21.761719v-184.960937c-.003906-12.015625 9.742187-21.761719 21.757812-21.757813h115.320313c12.019531-.003906 21.761719 9.742188 21.761719 21.757813zm-78.402344 128.8125c31.792968-12.871094 42.519531-36.070313 39.140625-53.453125-2.347657-11.648438-10.621094-19.207032-21.359375-19.207032-5.917969 0-12.460938 2.449219-18.800782 7.046876-6.4375-4.796876-12.878906-7.257813-18.910156-7.257813-10.730468 0-19.007812 7.570313-21.257812 19.417969-3.371094 17.582031 7.46875 40.882812 39.148437 53.453125.652344.277343 1.390625.277343 2.039063 0zm0 0" fill="#fedb41"/><path d="m414.699219 350.558594c3.378906 17.382812-7.347657 40.582031-39.140625 53.453125-.648438.277343-1.386719.277343-2.039063 0-31.679687-12.570313-42.519531-35.871094-39.148437-53.453125 2.25-11.847656 10.527344-19.417969 21.257812-19.417969 6.03125 0 12.472656 2.460937 18.910156 7.257813 6.339844-4.597657 12.882813-7.046876 18.800782-7.046876 10.738281 0 19.011718 7.558594 21.359375 19.207032zm0 0" fill="#00acea"/><path d="m286.878906 253.441406h30c-12.015625-.003906-21.761718 9.742188-21.757812 21.757813v184.960937c-.003906 12.019532 9.742187 21.761719 21.757812 21.761719h-30c-12.015625 0-21.761718-9.742187-21.757812-21.761719v-184.960937c-.003906-12.015625 9.742187-21.761719 21.757812-21.757813zm0 0" fill="#00acea"/><path d="m301.261719 69.921875h-141.882813c-.6875 0-1.378906-.023437-2.058594-.0625-13.742187-.808594-25.730468-9.609375-30.621093-22.476563-4.890625-12.867187-1.773438-27.410156 7.960937-37.144531 1.027344-1.023437 2.117188-1.984375 3.261719-2.878906 6.125-4.785156 13.683594-7.375 21.457031-7.359375h71.972656c38.609376.00390625 69.910157 31.308594 69.910157 69.921875zm0 0" fill="#4b5d63"/><path d="m291.089844 143.539062c6.132812 6.136719 7.964844 15.359376 4.644531 23.375-3.320313 8.011719-11.140625 13.238282-19.8125 13.234376h-.050781c.167968-2.378907.253906-4.773438.25-7.179688v-35.699219c5.621094.035157 11 2.289063 14.96875 6.269531zm0 0" fill="#edb288"/><path d="m230.621094 259.449219c-32.683594 22.796875-75.828125 23.855469-109.589844 2.691406-28.597656-17.886719-46.933594-48.355469-49.339844-82-.171875-2.371094-.253906-4.761719-.25-7.171875v-61.558594c5.199219.667969 51.019532 4.988282 85.878906-41.488281v-.0625c.679688.039063 1.371094.0625 2.058594.0625h116.742188v103.046875c0 2.410156-.085938 4.804688-.25 7.179688-1.773438 24.886718-12.304688 48.339843-29.730469 66.191406-4.734375 4.867187-9.929687 9.257812-15.519531 13.109375zm0 0" fill="#f7caa5"/><path d="m230.621094 295.230469v.910156l-56.109375 34.929687-53.480469-34.929687v-34c33.761719 21.164063 76.90625 20.105469 109.589844-2.691406zm0 0" fill="#edb288"/><path d="m264.710938 295.960938h-34.089844l-56.109375 34.929687-53.480469-34.929687h-50.171875c-38.609375 0-70.398437 31.46875-70.398437 70.078124v61.921876h265v-132zm0 0" fill="#00efd1"/><path d="m157.320312 69.859375v.0625c-34.859374 46.476563-80.679687 42.15625-85.878906 41.488281v-8.300781c.03125-42.65625 26.488282-80.828125 66.417969-95.828125l.0625.078125c-1.144531.894531-2.234375 1.855469-3.261719 2.878906-9.734375 9.734375-12.851562 24.277344-7.960937 37.144531 4.890625 12.867188 16.878906 21.667969 30.621093 22.476563zm0 0" fill="#354144"/><g fill="#edb288"><path d="m71.441406 172.96875c0 2.410156.082032 4.800781.25 7.171875-11.722656-.152344-22.152344-9.691406-22.152344-21.441406 0-11.84375 9.605469-21.445313 21.449219-21.4375h.453125zm0 0"/><path d="m130.121094 178.5c-14.0625-.003906-25.460938-11.398438-25.472656-25.460938 0-4.417968 3.582031-8 8-8 4.417968 0 8 3.582032 8 8 .011718 5.226563 4.246093 9.453126 9.472656 9.460938 5.222656-.007812 9.453125-4.238281 9.457031-9.460938 0-4.417968 3.582031-8 8-8 4.421875 0 8 3.582032 8 8-.011719 14.054688-11.402344 25.445313-25.457031 25.460938zm0 0"/><path d="m217.441406 178.5c-14.058594-.011719-25.449218-11.402344-25.460937-25.460938 0-4.417968 3.582031-8 8-8s8 3.582032 8 8c0 5.226563 4.238281 9.464844 9.464843 9.464844 5.226563 0 9.464844-4.238281 9.464844-9.464844 0-4.417968 3.582032-8 8-8 4.417969 0 8 3.582032 8 8-.019531 14.058594-11.414062 25.449219-25.46875 25.460938zm0 0"/></g><path d="m433.710938 304.269531c-4.417969 0-8-3.582031-8-8-.003907-6.847656-5.554688-12.398437-12.402344-12.410156-4.417969 0-8-3.582031-8-8s3.582031-8 8-8c15.683594.019531 28.386718 12.730469 28.402344 28.410156 0 4.417969-3.582032 8-8 8zm0 0" fill="#00acea"/><path d="m335.769531 467.5c-15.679687-.019531-28.382812-12.730469-28.398437-28.410156 0-4.417969 3.582031-8 8-8 4.417968 0 8 3.582031 8 8 .003906 6.847656 5.550781 12.398437 12.398437 12.410156 4.417969 0 8 3.582031 8 8s-3.582031 8-8 8zm0 0" fill="#00acea"/></svg>