<svg xmlns="http://www.w3.org/2000/svg" width="26.439" height="30" viewBox="0 0 26.439 30">
  <g id="pop_gift" data-name="pop&amp;gift" transform="translate(-30.387 -0.001)">
    <g id="pop_gift-2" data-name="pop&amp;gift" transform="translate(30.386 0.001)">
      <path id="Path_498" data-name="Path 498" d="M56.825,8.764l-1.5-4.129a2.639,2.639,0,0,0-3.379-1.576L49.18,4.064c0-.027.009-.054.013-.081A3.437,3.437,0,0,0,47.766.692a3.566,3.566,0,0,0-5.631,2.345l-.395,2.546L39.7,3.779A3.566,3.566,0,0,0,34.954,9.1c.037.033.074.065.112.1l-2.945,1.072a2.635,2.635,0,0,0-1.576,3.379l1.5,4.129,1.872-.677v10.26A2.63,2.63,0,0,0,36.546,30H54.123a2.64,2.64,0,0,0,2.637-2.637v-13.3h-14.5ZM52.544,4.71a.88.88,0,0,1,1.126.525l.9,2.478-8.259,3.006-1.2-3.3ZM43.872,3.3a1.808,1.808,0,0,1,2.856-1.191,1.687,1.687,0,0,1-.449,3.009l-1.769.644-1.081.393Zm-.413,4.714,1.2,3.3-1.652.6-1.2-3.3ZM36.8,4.725a1.8,1.8,0,0,1,1.737.371L40.812,7.11,37.954,8.15A1.782,1.782,0,0,1,36.128,7.8,1.808,1.808,0,0,1,36.8,4.725Zm-3.7,10.8-.9-2.478a.879.879,0,0,1,.525-1.127l7.433-2.705,1.2,3.3Zm14.871.293h7.043V27.364a.89.89,0,0,1-.891.879H47.971Zm-3.516,0h1.769V28.243H44.455Zm-1.746,0V28.243H36.546a.88.88,0,0,1-.879-.879v-10.9l1.768-.643Z" transform="translate(-30.386 -0.001)"/>
    </g>
  </g>
</svg>
