<svg xmlns="http://www.w3.org/2000/svg" width="28.978" height="25" viewBox="0 0 28.978 25">
  <path id="Products" d="M22.351,11.214,16.582,2.573a1.307,1.307,0,0,0-1.093-.553,1.287,1.287,0,0,0-1.093.566L8.626,11.214H2.317A1.321,1.321,0,0,0,1,12.531a1.109,1.109,0,0,0,.053.356L4.4,25.1A2.619,2.619,0,0,0,6.927,27.02H24.051A2.647,2.647,0,0,0,26.593,25.1l3.346-12.21.04-.356a1.321,1.321,0,0,0-1.317-1.317Zm-10.814,0,3.952-5.8,3.952,5.8Zm3.952,10.537a2.634,2.634,0,1,1,2.634-2.634A2.642,2.642,0,0,1,15.489,21.751Z" transform="translate(-1 -2.02)"/>
</svg>
