<svg id="Book-notebook" height="512" viewBox="0 0 64 64" width="512" xmlns="http://www.w3.org/2000/svg"><path d="m12 3h38v48h-38z" fill="#00b6bd"/><path d="m50 42v6h-23.35l-.65-.32-6-2.68 6-2.68.65-.32z" fill="#898890"/><path d="m12 54h37v4h-37z" fill="#e0e0e2"/><path d="m54 32v4a2.006 2.006 0 0 1 -2 2h-2v-8h2a2.006 2.006 0 0 1 2 2z" fill="#ff5023"/><path d="m54 24v4a2.006 2.006 0 0 1 -2 2h-2v-8h2a2.006 2.006 0 0 1 2 2z" fill="#91dc5a"/><path d="m54 16v4a2.006 2.006 0 0 1 -2 2h-2v-8h2a2.006 2.006 0 0 1 2 2z" fill="#ffda44"/><path d="m54 8v4a2.006 2.006 0 0 1 -2 2h-2v-8h2a2.006 2.006 0 0 1 2 2z" fill="#ea348b"/><path d="m52 13h-2v1h2a2.006 2.006 0 0 0 2-2v-1a2.006 2.006 0 0 1 -2 2z" fill="#e4187a"/><path d="m52 21h-2v1h2a2.006 2.006 0 0 0 2-2v-1a2.006 2.006 0 0 1 -2 2z" fill="#dfbf3c"/><path d="m52 29h-2v1h2a2.006 2.006 0 0 0 2-2v-1a2.006 2.006 0 0 1 -2 2z" fill="#7fc14f"/><path d="m52 37h-2v1h2a2.006 2.006 0 0 0 2-2v-1a2.006 2.006 0 0 1 -2 2z" fill="#df461f"/><path d="m16 10h30v12h-30z" fill="#ffda44"/><path d="m12 3v53h-6v-48a5 5 0 0 1 5-5z" fill="#007579"/><path d="m12 54v4h38v3h-39a5 5 0 0 1 0-10h39v3z" fill="#006468"/><path d="m48 41h4v6h-4z" fill="#a7adf0"/><path d="m55 47h-3v-6h3a3 3 0 0 1 0 6z" fill="#57565c"/><path d="m26 46.68-6-2.68 6-2.68z" fill="#57565c"/><path d="m48 47h-21.349l-.651-.32v-5.36l.651-.32h21.349z" fill="#d80027"/><path d="m36 33h2v22h-2z" fill="#e03352" transform="matrix(0 1 -1 0 81 7)"/><path d="m12 54h37v1h-37z" fill="#c6c5ca"/></svg>